inDegrees=no
num_controls=7
num_derivatives=13
num_iterations=84
num_multipliers=7
num_parameters=0
num_slacks=7
num_states=26
objective=5.782870
objective_accelerations=0.333871
objective_balance=0.044537
objective_effort=0.400877
objective_height=4.959204
objective_ligament=0.044381
solver_duration=790.131983
status=Solve_Succeeded
success=true
DataType=double
version=3
OpenSimVersion=4.4-2022-07-23-0e9fedc
endheader
time	/jointset/ground_pelvis/pelvis_tilt/value	/jointset/ground_pelvis/pelvis_tx/value	/jointset/ground_pelvis/pelvis_ty/value	/jointset/hip_r/hip_flexion_r/value	/jointset/hip_r/hip_adduction_r/value	/jointset/hip_r/hip_rotation_r/value	/jointset/back/lumbar_extension/value	/jointset/patellofemoral_r/patellar_flexion_r/value	/jointset/knee_r/knee_flexion_r/value	/jointset/knee_r/knee_adduction_r/value	/jointset/knee_r/knee_rotation_r/value	/jointset/ankle_r/ankle_angle_r/value	/jointset/subtalar_r/subtalar_angle_r/value	/jointset/ground_pelvis/pelvis_tilt/speed	/jointset/ground_pelvis/pelvis_tx/speed	/jointset/ground_pelvis/pelvis_ty/speed	/jointset/hip_r/hip_flexion_r/speed	/jointset/hip_r/hip_adduction_r/speed	/jointset/hip_r/hip_rotation_r/speed	/jointset/back/lumbar_extension/speed	/jointset/patellofemoral_r/patellar_flexion_r/speed	/jointset/knee_r/knee_flexion_r/speed	/jointset/knee_r/knee_adduction_r/speed	/jointset/knee_r/knee_rotation_r/speed	/jointset/ankle_r/ankle_angle_r/speed	/jointset/subtalar_r/subtalar_angle_r/speed	/forceset/tau_hip_flexion_r	/forceset/tau_hip_adduction_r	/forceset/tau_hip_rotation_r	/forceset/tau_knee_flexion_r	/forceset/tau_ankle_angle_r	/forceset/tau_subtalar_angle_r	/forceset/tau_lumbar_extension	lambda_cid13_p0	lambda_cid14_p0	lambda_cid14_p1	lambda_cid14_p2	lambda_cid14_p3	lambda_cid14_p4	lambda_cid14_p5	/jointset/ground_pelvis/pelvis_tilt/accel	/jointset/ground_pelvis/pelvis_tx/accel	/jointset/ground_pelvis/pelvis_ty/accel	/jointset/hip_r/hip_flexion_r/accel	/jointset/hip_r/hip_adduction_r/accel	/jointset/hip_r/hip_rotation_r/accel	/jointset/back/lumbar_extension/accel	/jointset/patellofemoral_r/patellar_flexion_r/accel	/jointset/knee_r/knee_flexion_r/accel	/jointset/knee_r/knee_adduction_r/accel	/jointset/knee_r/knee_rotation_r/accel	/jointset/ankle_r/ankle_angle_r/accel	/jointset/subtalar_r/subtalar_angle_r/accel	gamma_cid13_p0	gamma_cid14_p0	gamma_cid14_p1	gamma_cid14_p2	gamma_cid14_p3	gamma_cid14_p4	gamma_cid14_p5
0	-0.006516385357458217	0.09626105126416416	0.9427240857937406	0.1762555651711513	-0.2321521608416742	-0.2616405314625305	-0.0385979564078546	0.07317816487770659	0.07317816487761825	0.1745317810792457	0.17453254448052	0.0324735960626065	-0.003451220206880736	0	0	0	0	0	0	0	0	0	0	0	0	0	0.2128597145668607	-0.09512464053986239	-0.04504198161730765	-0.4065598349349292	0.4307253270207689	-0.2077842090932543	-0.1083612227665525	-39.07624673917017	86.33350508375528	-65.04488602103488	-0.6832251852034967	-43.05438005047888	-681.6185257725431	5.045743492796098	-0.9279964286575373	-0.5646829742039354	-0.4047797242642973	6.144828807183673	0.2360323698103263	2.062966910145078	-4.440051278111931	7.539278145842236	7.539278145841683	-2.511644127605782	0.07607772135963398	3.076617119774501	0.94482423628685	7.995620365155659e-08	5.420794682702192e-08	-5.016880825866298e-07	1.874279008845987e-07	1.800650631343333e-08	6.290322064315707e-09	-2.81765877513035e-07
0.01	-0.00655839793886292	0.09623565970570375	0.942704731686509	0.1765499734664206	-0.2321400283215385	-0.2615297158418853	-0.03882046508897863	0.07354548898202974	0.07354548898207706	0.1744073521860072	0.174526248240082	0.03262741873785179	-0.003403728991734723	-0.008378471390360071	-0.00481570959954534	-0.00386055986224238	0.05838632506486333	0.002310029432964888	0.02207418960364022	-0.04413636835156188	0.07325996653833779	0.07325996653834724	-0.02457707984965517	-0.001202467523059156	0.03095744533021981	0.009420617634618544	0.216055645323901	-0.1584725352750924	-0.04590522885242955	-0.418092050811455	0.4386850931106384	-0.1550028418840584	-0.1096213003186886	-39.08838004926462	90.98415657170948	-41.61910561885878	-4.062170444838441	-49.81745779936302	-682.1051623857954	52.85637108317103	-0.7891604253697929	-0.4006210417302788	-0.3751536214087645	5.611239433958966	0.2109721560437897	2.266347682697955	-4.345624429107145	7.188611763079907	7.18861176308123	-2.384492810985521	-0.2098414472714988	3.13425928609025	0.928979088939009	1.029318351097969e-07	5.375032548437589e-08	-6.75181890311237e-07	1.919602380377259e-07	4.343465946466291e-08	-9.107969408511095e-08	-3.491440499776654e-07
0.02	-0.00668347282048744	0.09616998983346307	0.9426470800798025	0.1774133860279109	-0.232108298721883	-0.2612008177858242	-0.03947337641671494	0.07463926392317302	0.07463926392315663	0.1740464019141571	0.1745096408328768	0.03309660607565878	-0.003264371887863635	-0.01661246002609626	-0.00805566275604994	-0.007659499894990401	0.1138008532424347	0.00391941590606544	0.04361648709614419	-0.08608052932004367	0.1452901672866506	0.1452901672866697	-0.04730427559288294	-0.002062233371227857	0.06307293251816094	0.01837317774480537	0.2192515760816306	-0.2218204300101827	-0.04676847609060323	-0.4296242666871564	0.4466448592006975	-0.1022214746746171	-0.1108813778703638	-39.1243804370662	95.70311351265173	-18.19651360607549	-7.423303566426864	-56.76426093398458	-681.5855475064138	100.4734377968965	-0.8990998777309878	-0.2495316855972471	-0.3924557583654033	5.550469429725042	0.09590377783678589	1.956588487914535	-4.001609801494624	7.293324987837687	7.293324987837173	-2.141667306318809	0.1446180563411452	3.30822549131683	0.8512127313993799	1.259074665680372e-07	5.329270414172985e-08	-8.486756980358443e-07	1.964925751908531e-07	6.886281261589248e-08	-1.884497102345376e-07	-4.165222224422958e-07
0.03	-0.006889965623173264	0.09607636563785726	0.9425515715437212	0.1788196248325258	-0.2320630035036254	-0.260662178751921	-0.040535645809903	0.07644652695155807	0.0764465269516975	0.1734659413282086	0.1744882565001059	0.03388812789022149	-0.003037798124686876	-0.02462052708187817	-0.01074856625687775	-0.01144558692076579	0.1672623006793294	0.005118042965648103	0.06398362939063242	-0.1261162063907262	0.2158170426684383	0.2158170426684401	-0.06862672670322931	-0.002218411787017639	0.09494951684279712	0.02685712213478972	0.2103477909355933	-0.1970827381828937	-0.04430020006415967	-0.4146635210049333	0.4270493813532126	-0.1159634414746848	-0.1043636606117242	-39.18362107169694	88.86179608234752	-25.30988288987207	-6.349356394777854	-50.94123181501512	-681.2770492567224	84.65497256743348	-0.7418116011098199	-0.2910642946916334	-0.3722301977797708	5.216299704453894	0.1285179719715138	2.057675165469112	-3.965975217150441	6.880534182110361	6.880534182108364	-2.103476596001097	-0.09623816889178055	3.085111854283399	0.8342057007467734	1.419874726444447e-07	5.668089471232274e-08	-9.549124320335018e-07	1.964878779185408e-07	8.08976740122707e-08	-2.674130946710021e-07	-4.482806276107358e-07
